<mxfile host="app.diagrams.net" modified="2023-07-03T14:07:16.554Z" agent="Mozilla/5.0 (Windows NT 10.0; Win64; x64) AppleWebKit/537.36 (KHTML, like Gecko) Chrome/114.0.0.0 Safari/537.36" etag="BpKMD723ewC6ye3-9psk" version="21.5.2" type="github" pages="2">
  <diagram id="C5RBs43oDa-KdzZeNtuy" name="Page-1">
    <mxGraphModel dx="880" dy="522" grid="1" gridSize="10" guides="1" tooltips="1" connect="1" arrows="1" fold="1" page="1" pageScale="1" pageWidth="1169" pageHeight="827" math="0" shadow="0">
      <root>
        <mxCell id="WIyWlLk6GJQsqaUBKTNV-0" />
        <mxCell id="WIyWlLk6GJQsqaUBKTNV-1" parent="WIyWlLk6GJQsqaUBKTNV-0" />
        <mxCell id="lJfVtSuaQ22JxJwbS_V7-2" style="edgeStyle=orthogonalEdgeStyle;rounded=1;orthogonalLoop=1;jettySize=auto;html=1;exitX=1;exitY=0.5;exitDx=0;exitDy=0;" parent="WIyWlLk6GJQsqaUBKTNV-1" source="lJfVtSuaQ22JxJwbS_V7-0" target="lJfVtSuaQ22JxJwbS_V7-1" edge="1">
          <mxGeometry relative="1" as="geometry" />
        </mxCell>
        <mxCell id="lJfVtSuaQ22JxJwbS_V7-0" value="start" style="ellipse;whiteSpace=wrap;html=1;rounded=1;" parent="WIyWlLk6GJQsqaUBKTNV-1" vertex="1">
          <mxGeometry x="18" y="190" width="90" height="60" as="geometry" />
        </mxCell>
        <mxCell id="lJfVtSuaQ22JxJwbS_V7-5" value="" style="edgeStyle=orthogonalEdgeStyle;rounded=1;orthogonalLoop=1;jettySize=auto;html=1;entryX=0;entryY=0.5;entryDx=0;entryDy=0;" parent="WIyWlLk6GJQsqaUBKTNV-1" source="lJfVtSuaQ22JxJwbS_V7-1" target="lJfVtSuaQ22JxJwbS_V7-8" edge="1">
          <mxGeometry relative="1" as="geometry">
            <mxPoint x="348" y="220" as="targetPoint" />
            <Array as="points" />
          </mxGeometry>
        </mxCell>
        <mxCell id="lJfVtSuaQ22JxJwbS_V7-1" value="input kata" style="shape=parallelogram;perimeter=parallelogramPerimeter;whiteSpace=wrap;html=1;fixedSize=1;rounded=1;" parent="WIyWlLk6GJQsqaUBKTNV-1" vertex="1">
          <mxGeometry x="148" y="190" width="120" height="60" as="geometry" />
        </mxCell>
        <mxCell id="lJfVtSuaQ22JxJwbS_V7-10" value="" style="edgeStyle=orthogonalEdgeStyle;rounded=1;orthogonalLoop=1;jettySize=auto;html=1;entryX=0;entryY=0.5;entryDx=0;entryDy=0;" parent="WIyWlLk6GJQsqaUBKTNV-1" source="lJfVtSuaQ22JxJwbS_V7-8" edge="1">
          <mxGeometry relative="1" as="geometry">
            <mxPoint x="488" y="220" as="targetPoint" />
          </mxGeometry>
        </mxCell>
        <mxCell id="lJfVtSuaQ22JxJwbS_V7-11" value="true" style="edgeLabel;html=1;align=center;verticalAlign=middle;resizable=0;points=[];rounded=1;" parent="lJfVtSuaQ22JxJwbS_V7-10" vertex="1" connectable="0">
          <mxGeometry x="-0.1385" y="2" relative="1" as="geometry">
            <mxPoint y="-8" as="offset" />
          </mxGeometry>
        </mxCell>
        <mxCell id="lJfVtSuaQ22JxJwbS_V7-8" value="input = string" style="rhombus;whiteSpace=wrap;html=1;rounded=1;" parent="WIyWlLk6GJQsqaUBKTNV-1" vertex="1">
          <mxGeometry x="327" y="175" width="90" height="90" as="geometry" />
        </mxCell>
        <mxCell id="lJfVtSuaQ22JxJwbS_V7-12" value="" style="endArrow=classic;html=1;rounded=1;exitX=0.5;exitY=1;exitDx=0;exitDy=0;entryX=0.5;entryY=1;entryDx=0;entryDy=0;" parent="WIyWlLk6GJQsqaUBKTNV-1" source="lJfVtSuaQ22JxJwbS_V7-8" target="lJfVtSuaQ22JxJwbS_V7-1" edge="1">
          <mxGeometry width="50" height="50" relative="1" as="geometry">
            <mxPoint x="338" y="370" as="sourcePoint" />
            <mxPoint x="208" y="320" as="targetPoint" />
            <Array as="points">
              <mxPoint x="372" y="320" />
              <mxPoint x="208" y="320" />
            </Array>
          </mxGeometry>
        </mxCell>
        <mxCell id="lJfVtSuaQ22JxJwbS_V7-13" value="false" style="edgeLabel;html=1;align=center;verticalAlign=middle;resizable=0;points=[];rounded=1;" parent="lJfVtSuaQ22JxJwbS_V7-12" vertex="1" connectable="0">
          <mxGeometry x="-0.0727" y="-4" relative="1" as="geometry">
            <mxPoint x="-3" y="-6" as="offset" />
          </mxGeometry>
        </mxCell>
        <mxCell id="5DkDPQBtJgvztW3lo9aw-4" style="edgeStyle=orthogonalEdgeStyle;rounded=1;orthogonalLoop=1;jettySize=auto;html=1;exitX=0.5;exitY=1;exitDx=0;exitDy=0;entryX=0.5;entryY=0;entryDx=0;entryDy=0;" edge="1" parent="WIyWlLk6GJQsqaUBKTNV-1" source="lJfVtSuaQ22JxJwbS_V7-14" target="lJfVtSuaQ22JxJwbS_V7-22">
          <mxGeometry relative="1" as="geometry" />
        </mxCell>
        <mxCell id="lJfVtSuaQ22JxJwbS_V7-14" value="kata bukan &lt;br&gt;palindrome" style="shape=parallelogram;perimeter=parallelogramPerimeter;whiteSpace=wrap;html=1;fixedSize=1;rounded=1;" parent="WIyWlLk6GJQsqaUBKTNV-1" vertex="1">
          <mxGeometry x="470" y="460" width="124" height="60" as="geometry" />
        </mxCell>
        <mxCell id="5DkDPQBtJgvztW3lo9aw-3" style="edgeStyle=orthogonalEdgeStyle;rounded=1;orthogonalLoop=1;jettySize=auto;html=1;exitX=0.5;exitY=1;exitDx=0;exitDy=0;entryX=0.5;entryY=0;entryDx=0;entryDy=0;" edge="1" parent="WIyWlLk6GJQsqaUBKTNV-1" source="lJfVtSuaQ22JxJwbS_V7-20" target="lJfVtSuaQ22JxJwbS_V7-22">
          <mxGeometry relative="1" as="geometry" />
        </mxCell>
        <mxCell id="lJfVtSuaQ22JxJwbS_V7-20" value="kata merupakan palindrome" style="shape=parallelogram;perimeter=parallelogramPerimeter;whiteSpace=wrap;html=1;fixedSize=1;rounded=1;" parent="WIyWlLk6GJQsqaUBKTNV-1" vertex="1">
          <mxGeometry x="714" y="460" width="124" height="60" as="geometry" />
        </mxCell>
        <mxCell id="lJfVtSuaQ22JxJwbS_V7-22" value="end" style="ellipse;whiteSpace=wrap;html=1;rounded=1;" parent="WIyWlLk6GJQsqaUBKTNV-1" vertex="1">
          <mxGeometry x="606" y="620" width="100" height="60" as="geometry" />
        </mxCell>
        <mxCell id="mkv-X2F9aBNXDrb0iuVT-1" style="edgeStyle=orthogonalEdgeStyle;rounded=1;orthogonalLoop=1;jettySize=auto;html=1;exitX=1;exitY=0.5;exitDx=0;exitDy=0;" edge="1" parent="WIyWlLk6GJQsqaUBKTNV-1" source="2rXKHraruIFuwtF8Hl0k-0">
          <mxGeometry relative="1" as="geometry">
            <mxPoint x="654" y="280" as="targetPoint" />
          </mxGeometry>
        </mxCell>
        <mxCell id="2rXKHraruIFuwtF8Hl0k-0" value="i = reverse input" style="rounded=1;whiteSpace=wrap;html=1;" vertex="1" parent="WIyWlLk6GJQsqaUBKTNV-1">
          <mxGeometry x="482" y="190" width="120" height="60" as="geometry" />
        </mxCell>
        <mxCell id="mkv-X2F9aBNXDrb0iuVT-3" style="edgeStyle=orthogonalEdgeStyle;rounded=1;orthogonalLoop=1;jettySize=auto;html=1;exitX=0;exitY=0.5;exitDx=0;exitDy=0;" edge="1" parent="WIyWlLk6GJQsqaUBKTNV-1" source="mkv-X2F9aBNXDrb0iuVT-0" target="lJfVtSuaQ22JxJwbS_V7-14">
          <mxGeometry relative="1" as="geometry">
            <mxPoint x="611" y="370" as="sourcePoint" />
          </mxGeometry>
        </mxCell>
        <mxCell id="mkv-X2F9aBNXDrb0iuVT-5" value="false" style="edgeLabel;html=1;align=center;verticalAlign=middle;resizable=0;points=[];" vertex="1" connectable="0" parent="mkv-X2F9aBNXDrb0iuVT-3">
          <mxGeometry x="0.2549" y="1" relative="1" as="geometry">
            <mxPoint as="offset" />
          </mxGeometry>
        </mxCell>
        <mxCell id="5DkDPQBtJgvztW3lo9aw-5" style="edgeStyle=orthogonalEdgeStyle;rounded=1;orthogonalLoop=1;jettySize=auto;html=1;exitX=1;exitY=0.5;exitDx=0;exitDy=0;entryX=0.5;entryY=0;entryDx=0;entryDy=0;" edge="1" parent="WIyWlLk6GJQsqaUBKTNV-1" source="mkv-X2F9aBNXDrb0iuVT-0" target="lJfVtSuaQ22JxJwbS_V7-20">
          <mxGeometry relative="1" as="geometry" />
        </mxCell>
        <mxCell id="5DkDPQBtJgvztW3lo9aw-6" value="true" style="edgeLabel;html=1;align=center;verticalAlign=middle;resizable=0;points=[];" vertex="1" connectable="0" parent="5DkDPQBtJgvztW3lo9aw-5">
          <mxGeometry x="-0.0536" y="-1" relative="1" as="geometry">
            <mxPoint x="8" y="-2" as="offset" />
          </mxGeometry>
        </mxCell>
        <mxCell id="mkv-X2F9aBNXDrb0iuVT-0" value="input = i" style="rhombus;whiteSpace=wrap;html=1;rounded=1;" vertex="1" parent="WIyWlLk6GJQsqaUBKTNV-1">
          <mxGeometry x="611" y="365" width="90" height="90" as="geometry" />
        </mxCell>
        <mxCell id="5DkDPQBtJgvztW3lo9aw-0" value="&lt;h1&gt;Algorithm&lt;/h1&gt;&lt;div&gt;&lt;ol&gt;&lt;li&gt;start&lt;/li&gt;&lt;li&gt;input kata yang ingin di cek&lt;/li&gt;&lt;li&gt;lakukan validasi apakah input merupakan string atau bukan&lt;/li&gt;&lt;li&gt;buat variable yang berisi revese dari input&lt;/li&gt;&lt;li&gt;rubah input dan i menjadi lowecase&lt;/li&gt;&lt;li&gt;bandingkan input dengan i&lt;/li&gt;&lt;li&gt;jika input sama dengan i maka kata merupakan palindrome. jika tidak maka kata bukan palindrome&lt;/li&gt;&lt;li&gt;end&lt;/li&gt;&lt;/ol&gt;&lt;/div&gt;" style="text;html=1;strokeColor=none;fillColor=none;spacing=5;spacingTop=-20;whiteSpace=wrap;overflow=hidden;rounded=0;" vertex="1" parent="WIyWlLk6GJQsqaUBKTNV-1">
          <mxGeometry x="30" y="370" width="310" height="240" as="geometry" />
        </mxCell>
        <mxCell id="5DkDPQBtJgvztW3lo9aw-2" style="edgeStyle=orthogonalEdgeStyle;rounded=1;orthogonalLoop=1;jettySize=auto;html=1;exitX=0.5;exitY=1;exitDx=0;exitDy=0;entryX=0.5;entryY=0;entryDx=0;entryDy=0;" edge="1" parent="WIyWlLk6GJQsqaUBKTNV-1" source="5DkDPQBtJgvztW3lo9aw-1" target="mkv-X2F9aBNXDrb0iuVT-0">
          <mxGeometry relative="1" as="geometry" />
        </mxCell>
        <mxCell id="5DkDPQBtJgvztW3lo9aw-1" value="rubah input dan i menjadi lowercase" style="rounded=1;whiteSpace=wrap;html=1;" vertex="1" parent="WIyWlLk6GJQsqaUBKTNV-1">
          <mxGeometry x="594" y="280" width="120" height="60" as="geometry" />
        </mxCell>
      </root>
    </mxGraphModel>
  </diagram>
  <diagram id="X0jjPVXPz5QEUcgH71UL" name="Page-2">
    <mxGraphModel dx="880" dy="522" grid="1" gridSize="10" guides="1" tooltips="1" connect="1" arrows="1" fold="1" page="1" pageScale="1" pageWidth="827" pageHeight="1169" math="0" shadow="0">
      <root>
        <mxCell id="0" />
        <mxCell id="1" parent="0" />
        <mxCell id="vsXiDQH71KmeYD0qyTqh-3" value="" style="edgeStyle=orthogonalEdgeStyle;rounded=1;orthogonalLoop=1;jettySize=auto;html=1;" edge="1" parent="1" source="vsXiDQH71KmeYD0qyTqh-1" target="vsXiDQH71KmeYD0qyTqh-2">
          <mxGeometry relative="1" as="geometry" />
        </mxCell>
        <mxCell id="vsXiDQH71KmeYD0qyTqh-1" value="start" style="ellipse;whiteSpace=wrap;html=1;rounded=1;" vertex="1" parent="1">
          <mxGeometry x="294" y="10" width="96" height="60" as="geometry" />
        </mxCell>
        <mxCell id="vsXiDQH71KmeYD0qyTqh-7" value="" style="edgeStyle=orthogonalEdgeStyle;rounded=1;orthogonalLoop=1;jettySize=auto;html=1;" edge="1" parent="1" source="vsXiDQH71KmeYD0qyTqh-2" target="vsXiDQH71KmeYD0qyTqh-6">
          <mxGeometry relative="1" as="geometry" />
        </mxCell>
        <mxCell id="vsXiDQH71KmeYD0qyTqh-2" value="input kalimat" style="shape=parallelogram;perimeter=parallelogramPerimeter;whiteSpace=wrap;html=1;fixedSize=1;rounded=1;" vertex="1" parent="1">
          <mxGeometry x="282" y="100" width="120" height="60" as="geometry" />
        </mxCell>
        <mxCell id="vsXiDQH71KmeYD0qyTqh-11" value="" style="edgeStyle=orthogonalEdgeStyle;rounded=1;orthogonalLoop=1;jettySize=auto;html=1;" edge="1" parent="1" source="vsXiDQH71KmeYD0qyTqh-6" target="vsXiDQH71KmeYD0qyTqh-10">
          <mxGeometry relative="1" as="geometry" />
        </mxCell>
        <mxCell id="vsXiDQH71KmeYD0qyTqh-12" value="true" style="edgeLabel;html=1;align=center;verticalAlign=middle;resizable=0;points=[];" vertex="1" connectable="0" parent="vsXiDQH71KmeYD0qyTqh-11">
          <mxGeometry x="-0.2889" y="-3" relative="1" as="geometry">
            <mxPoint x="2" y="3" as="offset" />
          </mxGeometry>
        </mxCell>
        <mxCell id="vsXiDQH71KmeYD0qyTqh-6" value="input &lt;br&gt;=&lt;br&gt;&amp;nbsp;string" style="rhombus;whiteSpace=wrap;html=1;rounded=1;" vertex="1" parent="1">
          <mxGeometry x="302" y="200" width="80" height="80" as="geometry" />
        </mxCell>
        <mxCell id="vsXiDQH71KmeYD0qyTqh-8" value="" style="endArrow=classic;html=1;rounded=1;exitX=1;exitY=0.5;exitDx=0;exitDy=0;entryX=1;entryY=0.5;entryDx=0;entryDy=0;" edge="1" parent="1" source="vsXiDQH71KmeYD0qyTqh-6" target="vsXiDQH71KmeYD0qyTqh-2">
          <mxGeometry width="50" height="50" relative="1" as="geometry">
            <mxPoint x="418" y="250" as="sourcePoint" />
            <mxPoint x="468" y="200" as="targetPoint" />
            <Array as="points">
              <mxPoint x="448" y="240" />
              <mxPoint x="448" y="130" />
            </Array>
          </mxGeometry>
        </mxCell>
        <mxCell id="vsXiDQH71KmeYD0qyTqh-9" value="false" style="edgeLabel;html=1;align=center;verticalAlign=middle;resizable=0;points=[];" vertex="1" connectable="0" parent="vsXiDQH71KmeYD0qyTqh-8">
          <mxGeometry x="0.0948" y="-4" relative="1" as="geometry">
            <mxPoint x="-3" as="offset" />
          </mxGeometry>
        </mxCell>
        <mxCell id="IOctrPQvCP3SE1TMyEhK-1" style="edgeStyle=orthogonalEdgeStyle;rounded=1;orthogonalLoop=1;jettySize=auto;html=1;exitX=1;exitY=0.5;exitDx=0;exitDy=0;" edge="1" parent="1" source="vsXiDQH71KmeYD0qyTqh-10" target="vsXiDQH71KmeYD0qyTqh-13">
          <mxGeometry relative="1" as="geometry" />
        </mxCell>
        <mxCell id="vsXiDQH71KmeYD0qyTqh-10" value="input di split berdasarkan spasi" style="whiteSpace=wrap;html=1;rounded=1;" vertex="1" parent="1">
          <mxGeometry x="282" y="330" width="120" height="60" as="geometry" />
        </mxCell>
        <mxCell id="vsXiDQH71KmeYD0qyTqh-16" value="" style="edgeStyle=orthogonalEdgeStyle;rounded=1;orthogonalLoop=1;jettySize=auto;html=1;" edge="1" parent="1" source="vsXiDQH71KmeYD0qyTqh-13" target="vsXiDQH71KmeYD0qyTqh-15">
          <mxGeometry relative="1" as="geometry" />
        </mxCell>
        <mxCell id="vsXiDQH71KmeYD0qyTqh-13" value="input di reverse" style="whiteSpace=wrap;html=1;rounded=1;" vertex="1" parent="1">
          <mxGeometry x="402" y="420" width="120" height="60" as="geometry" />
        </mxCell>
        <mxCell id="kaD3ToQhMLpuxvdNghRa-3" style="edgeStyle=orthogonalEdgeStyle;rounded=1;orthogonalLoop=1;jettySize=auto;html=1;exitX=0.5;exitY=1;exitDx=0;exitDy=0;" edge="1" parent="1" source="vsXiDQH71KmeYD0qyTqh-15" target="kaD3ToQhMLpuxvdNghRa-2">
          <mxGeometry relative="1" as="geometry" />
        </mxCell>
        <mxCell id="vsXiDQH71KmeYD0qyTqh-15" value="lakukan spread input" style="whiteSpace=wrap;html=1;rounded=1;" vertex="1" parent="1">
          <mxGeometry x="162" y="420" width="120" height="60" as="geometry" />
        </mxCell>
        <mxCell id="kaD3ToQhMLpuxvdNghRa-5" style="edgeStyle=orthogonalEdgeStyle;rounded=1;orthogonalLoop=1;jettySize=auto;html=1;exitX=0.5;exitY=1;exitDx=0;exitDy=0;entryX=0.5;entryY=0;entryDx=0;entryDy=0;" edge="1" parent="1" source="kaD3ToQhMLpuxvdNghRa-2" target="kaD3ToQhMLpuxvdNghRa-4">
          <mxGeometry relative="1" as="geometry" />
        </mxCell>
        <mxCell id="kaD3ToQhMLpuxvdNghRa-2" value="output, &lt;br&gt;kalimat yang sudah &lt;br&gt;dirubah urutannya" style="shape=parallelogram;perimeter=parallelogramPerimeter;whiteSpace=wrap;html=1;fixedSize=1;rounded=1;" vertex="1" parent="1">
          <mxGeometry x="274" y="520" width="136" height="70" as="geometry" />
        </mxCell>
        <mxCell id="kaD3ToQhMLpuxvdNghRa-4" value="end" style="ellipse;whiteSpace=wrap;html=1;rounded=1;" vertex="1" parent="1">
          <mxGeometry x="289" y="630" width="106" height="70" as="geometry" />
        </mxCell>
        <mxCell id="y0gCFgdvzbRdo3ucz2jR-1" value="&lt;h1&gt;Algorithm&lt;/h1&gt;&lt;div&gt;&lt;ol&gt;&lt;li&gt;start&lt;/li&gt;&lt;li&gt;input kalimat yang akan dirubah&lt;/li&gt;&lt;li&gt;lakukan validasi apakah input merupakan string atau bukan&lt;/li&gt;&lt;li&gt;split input berdasarkan spasi&lt;/li&gt;&lt;li&gt;setelah di split, reverse input&lt;/li&gt;&lt;li&gt;setelah di reverse, spread input&lt;/li&gt;&lt;li&gt;outputnya menjadi kalimat yang sudah dirubah urutannya.&lt;/li&gt;&lt;li&gt;end&lt;/li&gt;&lt;/ol&gt;&lt;/div&gt;" style="text;html=1;strokeColor=none;fillColor=none;spacing=5;spacingTop=-20;whiteSpace=wrap;overflow=hidden;rounded=0;align=left;" vertex="1" parent="1">
          <mxGeometry x="540" y="81" width="280" height="300" as="geometry" />
        </mxCell>
      </root>
    </mxGraphModel>
  </diagram>
</mxfile>
